%TF.GenerationSoftware,KiCad,Pcbnew,9.0.6*%
%TF.CreationDate,2025-11-18T22:02:06+01:00*%
%TF.ProjectId,simple_mesh,73696d70-6c65-45f6-9d65-73682e6b6963,rev?*%
%TF.SameCoordinates,Original*%
%TF.FileFunction,Soldermask,Top*%
%TF.FilePolarity,Negative*%
%FSLAX46Y46*%
G04 Gerber Fmt 4.6, Leading zero omitted, Abs format (unit mm)*
G04 Created by KiCad (PCBNEW 9.0.6) date 2025-11-18 22:02:06*
%MOMM*%
%LPD*%
G01*
G04 APERTURE LIST*
G04 Aperture macros list*
%AMRoundRect*
0 Rectangle with rounded corners*
0 $1 Rounding radius*
0 $2 $3 $4 $5 $6 $7 $8 $9 X,Y pos of 4 corners*
0 Add a 4 corners polygon primitive as box body*
4,1,4,$2,$3,$4,$5,$6,$7,$8,$9,$2,$3,0*
0 Add four circle primitives for the rounded corners*
1,1,$1+$1,$2,$3*
1,1,$1+$1,$4,$5*
1,1,$1+$1,$6,$7*
1,1,$1+$1,$8,$9*
0 Add four rect primitives between the rounded corners*
20,1,$1+$1,$2,$3,$4,$5,0*
20,1,$1+$1,$4,$5,$6,$7,0*
20,1,$1+$1,$6,$7,$8,$9,0*
20,1,$1+$1,$8,$9,$2,$3,0*%
G04 Aperture macros list end*
%ADD10RoundRect,0.200000X-0.275000X0.200000X-0.275000X-0.200000X0.275000X-0.200000X0.275000X0.200000X0*%
%ADD11RoundRect,0.250000X-0.300000X0.300000X-0.300000X-0.300000X0.300000X-0.300000X0.300000X0.300000X0*%
%ADD12RoundRect,0.150000X-0.150000X0.587500X-0.150000X-0.587500X0.150000X-0.587500X0.150000X0.587500X0*%
%ADD13RoundRect,0.080000X0.720000X-1.420000X0.720000X1.420000X-0.720000X1.420000X-0.720000X-1.420000X0*%
%ADD14RoundRect,0.560000X0.240000X-0.940000X0.240000X0.940000X-0.240000X0.940000X-0.240000X-0.940000X0*%
%ADD15RoundRect,0.250000X0.300000X0.300000X-0.300000X0.300000X-0.300000X-0.300000X0.300000X-0.300000X0*%
%ADD16RoundRect,0.200000X0.200000X0.275000X-0.200000X0.275000X-0.200000X-0.275000X0.200000X-0.275000X0*%
%ADD17RoundRect,0.080000X-0.720000X1.420000X-0.720000X-1.420000X0.720000X-1.420000X0.720000X1.420000X0*%
%ADD18RoundRect,0.560000X-0.240000X0.940000X-0.240000X-0.940000X0.240000X-0.940000X0.240000X0.940000X0*%
%ADD19RoundRect,0.225000X-0.250000X0.225000X-0.250000X-0.225000X0.250000X-0.225000X0.250000X0.225000X0*%
%ADD20RoundRect,0.200000X0.275000X-0.200000X0.275000X0.200000X-0.275000X0.200000X-0.275000X-0.200000X0*%
%ADD21RoundRect,0.540000X1.560000X0.360000X-1.560000X0.360000X-1.560000X-0.360000X1.560000X-0.360000X0*%
%ADD22RoundRect,0.540000X-1.560000X-0.360000X1.560000X-0.360000X1.560000X0.360000X-1.560000X0.360000X0*%
%ADD23RoundRect,0.225000X-0.225000X-0.250000X0.225000X-0.250000X0.225000X0.250000X-0.225000X0.250000X0*%
%ADD24RoundRect,0.225000X0.225000X0.250000X-0.225000X0.250000X-0.225000X-0.250000X0.225000X-0.250000X0*%
%ADD25RoundRect,0.200000X-0.200000X-0.275000X0.200000X-0.275000X0.200000X0.275000X-0.200000X0.275000X0*%
%ADD26C,2.200000*%
%ADD27C,1.850000*%
G04 APERTURE END LIST*
D10*
%TO.C,R3*%
X77470000Y-103950000D03*
X77470000Y-105600000D03*
%TD*%
D11*
%TO.C,D3*%
X80010000Y-109725000D03*
X80010000Y-112525000D03*
%TD*%
D12*
%TO.C,D2*%
X78100000Y-109885000D03*
X76200000Y-109885000D03*
X77150000Y-111760000D03*
%TD*%
D13*
%TO.C,J3*%
X72390000Y-101600000D03*
D14*
X74930000Y-101600000D03*
X77470000Y-101600000D03*
X80010000Y-101600000D03*
%TD*%
D15*
%TO.C,D4*%
X80140000Y-115570000D03*
X77340000Y-115570000D03*
%TD*%
D16*
%TO.C,R9*%
X85915000Y-105410000D03*
X84265000Y-105410000D03*
%TD*%
D12*
%TO.C,D1*%
X74290000Y-109885000D03*
X72390000Y-109885000D03*
X73340000Y-111760000D03*
%TD*%
D17*
%TO.C,J4*%
X80010000Y-118745000D03*
D18*
X77470000Y-118745000D03*
X74930000Y-118745000D03*
X72390000Y-118745000D03*
%TD*%
D19*
%TO.C,C5*%
X86868000Y-77965000D03*
X86868000Y-79515000D03*
%TD*%
D20*
%TO.C,R1*%
X72390000Y-115760000D03*
X72390000Y-114110000D03*
%TD*%
D21*
%TO.C,IC2*%
X85090000Y-95250000D03*
X85090000Y-92710000D03*
X85090000Y-90170000D03*
X85090000Y-87630000D03*
X85090000Y-85090000D03*
X85090000Y-82550000D03*
X85090000Y-80010000D03*
X85090000Y-77470000D03*
D22*
X67310000Y-77470000D03*
X67310000Y-80010000D03*
X67310000Y-82550000D03*
X67310000Y-85090000D03*
X67310000Y-87630000D03*
X67310000Y-90170000D03*
X67310000Y-92710000D03*
X67310000Y-95250000D03*
%TD*%
D10*
%TO.C,R4*%
X80010000Y-103950000D03*
X80010000Y-105600000D03*
%TD*%
D20*
%TO.C,R2*%
X74295000Y-115760000D03*
X74295000Y-114110000D03*
%TD*%
D23*
%TO.C,C2*%
X83680000Y-113030000D03*
X85230000Y-113030000D03*
%TD*%
%TO.C,C3*%
X72885000Y-104140000D03*
X74435000Y-104140000D03*
%TD*%
D24*
%TO.C,C1*%
X85865000Y-102870000D03*
X84315000Y-102870000D03*
%TD*%
%TO.C,C4*%
X85230000Y-115570000D03*
X83680000Y-115570000D03*
%TD*%
D25*
%TO.C,R10*%
X84265000Y-100330000D03*
X85915000Y-100330000D03*
%TD*%
D24*
%TO.C,C6*%
X85230000Y-125730000D03*
X83680000Y-125730000D03*
%TD*%
%TO.C,C7*%
X85230000Y-123190000D03*
X83680000Y-123190000D03*
%TD*%
D26*
%TO.C,IC1*%
X73475000Y-125600000D03*
D27*
X73775000Y-122570000D03*
X78625000Y-122570000D03*
D26*
X78925000Y-125600000D03*
%TD*%
M02*
