M48
; DRILL file {KiCad 9.0.6} date 2025-11-18T22:02:11+0100
; FORMAT={-:-/ absolute / metric / decimal}
; #@! TF.CreationDate,2025-11-18T22:02:11+01:00
; #@! TF.GenerationSoftware,Kicad,Pcbnew,9.0.6
; #@! TF.FileFunction,Plated,1,2,PTH
FMAT,2
METRIC
; #@! TA.AperFunction,Plated,PTH,ViaDrill
T1C0.300
%
G90
G05
T1
X64.77Y-74.93
X66.04Y-74.93
X67.31Y-74.93
X69.175Y-99.695
X69.215Y-115.57
X69.215Y-127.0
X69.85Y-80.01
X69.85Y-83.82
X69.85Y-100.33
X69.85Y-120.65
X70.485Y-82.55
X70.485Y-88.9
X70.485Y-95.25
X70.485Y-115.57
X70.485Y-127.0
X70.525Y-85.725
X71.755Y-127.0
X74.29Y-107.955
X74.295Y-95.885
X74.93Y-101.6
X74.93Y-111.76
X75.565Y-115.57
X76.2Y-95.885
X76.2Y-104.14
X76.2Y-108.75
X77.47Y-118.745
X78.105Y-95.885
X78.105Y-107.95
X78.74Y-104.14
X78.74Y-111.76
X78.74Y-116.84
X79.845Y-86.995
X80.645Y-97.155
X80.645Y-127.0
X81.28Y-107.95
X81.28Y-113.665
X81.445Y-86.36
X81.915Y-82.55
X81.915Y-88.9
X81.915Y-92.71
X81.915Y-95.25
X81.915Y-120.65
X81.915Y-127.0
X82.55Y-80.01
X82.55Y-83.82
X83.185Y-97.155
X83.185Y-127.0
X85.09Y-74.93
X85.89Y-107.95
X85.89Y-120.65
X86.36Y-74.93
X86.36Y-123.19
X86.36Y-125.73
X86.995Y-102.87
X86.995Y-113.03
X86.995Y-115.57
X87.63Y-74.93
M30
