%TF.GenerationSoftware,KiCad,Pcbnew,9.0.6*%
%TF.CreationDate,2025-11-18T22:02:06+01:00*%
%TF.ProjectId,simple_mesh,73696d70-6c65-45f6-9d65-73682e6b6963,rev?*%
%TF.SameCoordinates,Original*%
%TF.FileFunction,Soldermask,Bot*%
%TF.FilePolarity,Negative*%
%FSLAX46Y46*%
G04 Gerber Fmt 4.6, Leading zero omitted, Abs format (unit mm)*
G04 Created by KiCad (PCBNEW 9.0.6) date 2025-11-18 22:02:06*
%MOMM*%
%LPD*%
G01*
G04 APERTURE LIST*
G04 Aperture macros list*
%AMRoundRect*
0 Rectangle with rounded corners*
0 $1 Rounding radius*
0 $2 $3 $4 $5 $6 $7 $8 $9 X,Y pos of 4 corners*
0 Add a 4 corners polygon primitive as box body*
4,1,4,$2,$3,$4,$5,$6,$7,$8,$9,$2,$3,0*
0 Add four circle primitives for the rounded corners*
1,1,$1+$1,$2,$3*
1,1,$1+$1,$4,$5*
1,1,$1+$1,$6,$7*
1,1,$1+$1,$8,$9*
0 Add four rect primitives between the rounded corners*
20,1,$1+$1,$2,$3,$4,$5,0*
20,1,$1+$1,$4,$5,$6,$7,0*
20,1,$1+$1,$6,$7,$8,$9,0*
20,1,$1+$1,$8,$9,$2,$3,0*%
%AMFreePoly0*
4,1,37,0.800000,0.796148,0.878414,0.796148,1.032228,0.765552,1.177117,0.705537,1.307515,0.618408,1.418408,0.507515,1.505537,0.377117,1.565552,0.232228,1.596148,0.078414,1.596148,-0.078414,1.565552,-0.232228,1.505537,-0.377117,1.418408,-0.507515,1.307515,-0.618408,1.177117,-0.705537,1.032228,-0.765552,0.878414,-0.796148,0.800000,-0.796148,0.800000,-0.800000,-1.400000,-0.800000,
-1.403843,-0.796157,-1.439018,-0.796157,-1.511114,-0.766294,-1.566294,-0.711114,-1.596157,-0.639018,-1.596157,-0.603843,-1.600000,-0.600000,-1.600000,0.600000,-1.596157,0.603843,-1.596157,0.639018,-1.566294,0.711114,-1.511114,0.766294,-1.439018,0.796157,-1.403843,0.796157,-1.400000,0.800000,0.800000,0.800000,0.800000,0.796148,0.800000,0.796148,$1*%
%AMFreePoly1*
4,1,37,1.403843,0.796157,1.439018,0.796157,1.511114,0.766294,1.566294,0.711114,1.596157,0.639018,1.596157,0.603843,1.600000,0.600000,1.600000,-0.600000,1.596157,-0.603843,1.596157,-0.639018,1.566294,-0.711114,1.511114,-0.766294,1.439018,-0.796157,1.403843,-0.796157,1.400000,-0.800000,-0.800000,-0.800000,-0.800000,-0.796148,-0.878414,-0.796148,-1.032228,-0.765552,-1.177117,-0.705537,
-1.307515,-0.618408,-1.418408,-0.507515,-1.505537,-0.377117,-1.565552,-0.232228,-1.596148,-0.078414,-1.596148,0.078414,-1.565552,0.232228,-1.505537,0.377117,-1.418408,0.507515,-1.307515,0.618408,-1.177117,0.705537,-1.032228,0.765552,-0.878414,0.796148,-0.800000,0.796148,-0.800000,0.800000,1.400000,0.800000,1.403843,0.796157,1.403843,0.796157,$1*%
%AMFreePoly2*
4,1,37,1.600000,0.796148,1.678414,0.796148,1.832228,0.765552,1.977117,0.705537,2.107515,0.618408,2.218408,0.507515,2.305537,0.377117,2.365552,0.232228,2.396148,0.078414,2.396148,-0.078414,2.365552,-0.232228,2.305537,-0.377117,2.218408,-0.507515,2.107515,-0.618408,1.977117,-0.705537,1.832228,-0.765552,1.678414,-0.796148,1.600000,-0.796148,1.600000,-0.800000,-0.600000,-0.800000,
-0.603843,-0.796157,-0.639018,-0.796157,-0.711114,-0.766294,-0.766294,-0.711114,-0.796157,-0.639018,-0.796157,-0.603843,-0.800000,-0.600000,-0.800000,0.600000,-0.796157,0.603843,-0.796157,0.639018,-0.766294,0.711114,-0.711114,0.766294,-0.639018,0.796157,-0.603843,0.796157,-0.600000,0.800000,1.600000,0.800000,1.600000,0.796148,1.600000,0.796148,$1*%
G04 Aperture macros list end*
%ADD10C,2.200000*%
%ADD11C,1.850000*%
%ADD12FreePoly0,0.000000*%
%ADD13RoundRect,0.800000X-0.800000X-0.000010X0.800000X-0.000010X0.800000X0.000010X-0.800000X0.000010X0*%
%ADD14FreePoly1,0.000000*%
%ADD15RoundRect,0.800000X-0.000010X0.800000X-0.000010X-0.800000X0.000010X-0.800000X0.000010X0.800000X0*%
%ADD16FreePoly2,90.000000*%
G04 APERTURE END LIST*
D10*
%TO.C,IC1*%
X73475000Y-125600000D03*
D11*
X73775000Y-122570000D03*
X78625000Y-122570000D03*
D10*
X78925000Y-125600000D03*
D12*
X66510000Y-125730000D03*
D13*
X66510000Y-123190000D03*
D14*
X66510000Y-120650000D03*
D13*
X66510000Y-118110000D03*
X66510000Y-115570000D03*
X66510000Y-113030000D03*
X66510000Y-110490000D03*
D14*
X66510000Y-107950000D03*
D13*
X66510000Y-105410000D03*
X66510000Y-102870000D03*
X66510000Y-100330000D03*
X66510000Y-97790000D03*
D14*
X66510000Y-95250000D03*
D13*
X66510000Y-92710000D03*
X66510000Y-90170000D03*
X66510000Y-87630000D03*
X66510000Y-85090000D03*
D14*
X66510000Y-82550000D03*
D13*
X66510000Y-80010000D03*
X66510000Y-77470000D03*
X85890000Y-77470000D03*
X85890000Y-80010000D03*
D12*
X85890000Y-82550000D03*
D13*
X85890000Y-85090000D03*
X85890000Y-87630000D03*
X85890000Y-90170000D03*
X85890000Y-92710000D03*
D12*
X85890000Y-95250000D03*
D13*
X85890000Y-97790000D03*
X85890000Y-100330000D03*
X85890000Y-102870000D03*
X85890000Y-105410000D03*
D12*
X85890000Y-107950000D03*
D13*
X85890000Y-110490000D03*
X85890000Y-113030000D03*
X85890000Y-115570000D03*
X85890000Y-118110000D03*
D12*
X85890000Y-120650000D03*
D13*
X85890000Y-123190000D03*
X85890000Y-125730000D03*
D15*
X73660000Y-76900000D03*
D16*
X76200000Y-77700000D03*
D15*
X78740000Y-76900000D03*
%TD*%
M02*
